<svg xmlns="http://www.w3.org/2000/svg" xmlns:xlink="http://www.w3.org/1999/xlink" width="1000" zoomAndPan="magnify" viewBox="0 0 750 374.999991" height="500" preserveAspectRatio="xMidYMid meet" version="1.0"><defs><g/><clipPath id="f329f4ee5a"><rect x="0" width="739" y="0" height="375"/></clipPath></defs><g transform="matrix(1, 0, 0, 1, 4, 0)"><g clip-path="url(#f329f4ee5a)"><g fill="#364fab" fill-opacity="1"><g transform="translate(1.121719, 318.205181)"><g><path d="M 18.71875 0 L 18.71875 -267.328125 L 157.34375 -267.328125 C 181.269531 -267.328125 201.953125 -263 219.390625 -254.34375 C 236.835938 -245.6875 250.332031 -233.523438 259.875 -217.859375 C 269.425781 -202.203125 274.203125 -183.679688 274.203125 -162.296875 C 274.203125 -140.910156 269.425781 -122.390625 259.875 -106.734375 C 250.332031 -91.078125 236.90625 -78.921875 219.59375 -70.265625 C 202.28125 -61.609375 181.910156 -57.28125 158.484375 -57.28125 L 127.9375 -57.28125 L 127.9375 0 Z M 124.875 -136.71875 L 139.015625 -136.71875 C 157.335938 -136.71875 166.5 -144.738281 166.5 -160.78125 C 166.5 -176.5625 157.335938 -184.453125 139.015625 -184.453125 L 124.875 -184.453125 Z M 124.875 -136.71875 "/></g></g></g><g fill="#364fab" fill-opacity="1"><g transform="translate(250.498822, 318.205181)"><g><path d="M 127.171875 5.34375 C 103.234375 5.34375 82.226562 0.828125 64.15625 -8.203125 C 46.082031 -17.242188 31.953125 -29.847656 21.765625 -46.015625 C 11.578125 -62.179688 6.484375 -80.957031 6.484375 -102.34375 C 6.484375 -123.726562 11.640625 -142.566406 21.953125 -158.859375 C 32.265625 -175.160156 46.648438 -187.828125 65.109375 -196.859375 C 83.566406 -205.898438 104.890625 -210.421875 129.078125 -210.421875 C 155.554688 -210.421875 178.085938 -205.203125 196.671875 -194.765625 C 215.253906 -184.328125 229.253906 -169.625 238.671875 -150.65625 C 248.097656 -131.6875 252.046875 -109.347656 250.515625 -83.640625 L 102.734375 -83.640625 C 104.515625 -75.484375 107.945312 -69.5625 113.03125 -65.875 C 118.125 -62.1875 124.238281 -60.34375 131.375 -60.34375 C 142.0625 -60.34375 149.828125 -63.394531 154.671875 -69.5 L 247.84375 -69.5 C 240.207031 -45.570312 225.820312 -27.113281 204.6875 -14.125 C 183.5625 -1.144531 157.722656 5.34375 127.171875 5.34375 Z M 103.109375 -122.96875 L 156.953125 -122.96875 C 153.898438 -137.476562 145.117188 -144.734375 130.609375 -144.734375 C 123.734375 -144.734375 117.875 -143.015625 113.03125 -139.578125 C 108.195312 -136.140625 104.890625 -130.601562 103.109375 -122.96875 Z M 103.109375 -122.96875 "/></g></g></g><g fill="#364fab" fill-opacity="1"><g transform="translate(478.489803, 318.205181)"><g><path d="M 17.1875 0 L 17.1875 -205.078125 L 89.359375 -205.078125 L 98.90625 -180.640625 C 112.65625 -196.929688 132.257812 -205.078125 157.71875 -205.078125 L 185.984375 -205.078125 L 185.984375 -114.953125 L 155.046875 -114.953125 C 142.066406 -114.953125 132.773438 -111.957031 127.171875 -105.96875 C 121.566406 -99.988281 118.765625 -90.757812 118.765625 -78.28125 L 118.765625 0 Z M 17.1875 0 "/></g></g></g><g fill="#364fab" fill-opacity="1"><g transform="translate(623.991387, 318.205181)"><g><path d="M 58.421875 5.34375 C 43.148438 5.34375 30.800781 0.890625 21.375 -8.015625 C 11.957031 -16.929688 7.25 -28.515625 7.25 -42.765625 C 7.25 -57.285156 11.957031 -68.9375 21.375 -77.71875 C 30.800781 -86.5 43.148438 -90.890625 58.421875 -90.890625 C 73.703125 -90.890625 85.988281 -86.5 95.28125 -77.71875 C 104.570312 -68.9375 109.21875 -57.285156 109.21875 -42.765625 C 109.21875 -28.515625 104.570312 -16.929688 95.28125 -8.015625 C 85.988281 0.890625 73.703125 5.34375 58.421875 5.34375 Z M 58.421875 5.34375 "/></g></g></g></g></g></svg>