<svg xmlns="http://www.w3.org/2000/svg" xmlns:xlink="http://www.w3.org/1999/xlink" width="500" zoomAndPan="magnify" viewBox="0 0 375 374.999991" height="500" preserveAspectRatio="xMidYMid meet" version="1.0"><defs><g/></defs><g fill="#364fab" fill-opacity="1"><g transform="translate(109.184364, 214.499986)"><g><path d="M 3.921875 0 L 3.921875 -56 L 32.953125 -56 C 37.972656 -56 42.304688 -55.09375 45.953125 -53.28125 C 49.609375 -51.46875 52.4375 -48.921875 54.4375 -45.640625 C 56.4375 -42.359375 57.4375 -38.476562 57.4375 -34 C 57.4375 -29.519531 56.4375 -25.640625 54.4375 -22.359375 C 52.4375 -19.078125 49.625 -16.53125 46 -14.71875 C 42.375 -12.90625 38.109375 -12 33.203125 -12 L 26.796875 -12 L 26.796875 0 Z M 26.15625 -28.640625 L 29.125 -28.640625 C 32.957031 -28.640625 34.875 -30.320312 34.875 -33.6875 C 34.875 -36.988281 32.957031 -38.640625 29.125 -38.640625 L 26.15625 -38.640625 Z M 26.15625 -28.640625 "/></g></g></g><g fill="#364fab" fill-opacity="1"><g transform="translate(161.978668, 214.499986)"><g><path d="M 26.640625 1.125 C 21.628906 1.125 17.226562 0.175781 13.4375 -1.71875 C 9.65625 -3.613281 6.695312 -6.253906 4.5625 -9.640625 C 2.425781 -13.023438 1.359375 -16.957031 1.359375 -21.4375 C 1.359375 -25.914062 2.4375 -29.863281 4.59375 -33.28125 C 6.757812 -36.695312 9.773438 -39.347656 13.640625 -41.234375 C 17.503906 -43.128906 21.972656 -44.078125 27.046875 -44.078125 C 32.585938 -44.078125 37.304688 -42.984375 41.203125 -40.796875 C 45.097656 -38.609375 48.03125 -35.523438 50 -31.546875 C 51.96875 -27.578125 52.796875 -22.898438 52.484375 -17.515625 L 21.515625 -17.515625 C 21.890625 -15.804688 22.609375 -14.566406 23.671875 -13.796875 C 24.742188 -13.023438 26.023438 -12.640625 27.515625 -12.640625 C 29.753906 -12.640625 31.382812 -13.28125 32.40625 -14.5625 L 51.921875 -14.5625 C 50.316406 -9.550781 47.300781 -5.679688 42.875 -2.953125 C 38.445312 -0.234375 33.035156 1.125 26.640625 1.125 Z M 21.59375 -25.765625 L 32.875 -25.765625 C 32.238281 -28.796875 30.398438 -30.3125 27.359375 -30.3125 C 25.921875 -30.3125 24.691406 -29.953125 23.671875 -29.234375 C 22.660156 -28.515625 21.96875 -27.359375 21.59375 -25.765625 Z M 21.59375 -25.765625 "/></g></g></g><g fill="#364fab" fill-opacity="1"><g transform="translate(210.293411, 214.499986)"><g><path d="M 3.59375 0 L 3.59375 -42.953125 L 18.71875 -42.953125 L 20.71875 -37.84375 C 23.601562 -41.25 27.710938 -42.953125 33.046875 -42.953125 L 38.953125 -42.953125 L 38.953125 -24.078125 L 32.484375 -24.078125 C 29.765625 -24.078125 27.816406 -23.445312 26.640625 -22.1875 C 25.460938 -20.9375 24.875 -19.007812 24.875 -16.40625 L 24.875 0 Z M 3.59375 0 "/></g></g></g><g fill="#364fab" fill-opacity="1"><g transform="translate(241.329683, 214.499986)"><g><path d="M 12.234375 1.125 C 9.035156 1.125 6.445312 0.191406 4.46875 -1.671875 C 2.5 -3.546875 1.515625 -5.972656 1.515625 -8.953125 C 1.515625 -11.992188 2.5 -14.4375 4.46875 -16.28125 C 6.445312 -18.125 9.035156 -19.046875 12.234375 -19.046875 C 15.441406 -19.046875 18.015625 -18.125 19.953125 -16.28125 C 21.898438 -14.4375 22.875 -11.992188 22.875 -8.953125 C 22.875 -5.972656 21.898438 -3.546875 19.953125 -1.671875 C 18.015625 0.191406 15.441406 1.125 12.234375 1.125 Z M 12.234375 1.125 "/></g></g></g></svg>